<?xml version="1.0" encoding="UTF-8" standalone="no"?><!DOCTYPE svg PUBLIC "-//W3C//DTD SVG 1.1//EN" "http://www.w3.org/Graphics/SVG/1.1/DTD/svg11.dtd"><svg width="100%" height="100%" viewBox="0 0 800 800" version="1.1" xmlns="http://www.w3.org/2000/svg" xmlns:xlink="http://www.w3.org/1999/xlink" xml:space="preserve" xmlns:serif="http://www.serif.com/" style="fill-rule:evenodd;clip-rule:evenodd;stroke-linecap:square;stroke-linejoin:round;stroke-miterlimit:1.5;"><path d="M419.662,0.577c-13.076,-1.288 -26.248,-1.288 -39.324,0l-8.113,31.401c-11.019,1.819 -21.833,4.717 -32.286,8.651l-22.726,-23.137c-11.968,5.422 -23.375,12.008 -34.055,19.662l8.674,31.25c-8.633,7.085 -16.55,15.001 -23.635,23.635l-31.25,-8.675c-7.654,10.681 -14.239,22.087 -19.662,34.056l23.137,22.726c-3.934,10.453 -6.831,21.267 -8.651,32.286l-31.4,8.113c-1.288,13.076 -1.288,26.247 0,39.324l31.4,8.112c1.82,11.02 4.717,21.834 8.651,32.286l-23.137,22.727c5.423,11.968 12.008,23.375 19.662,34.055l31.25,-8.674c7.085,8.633 15.002,16.549 23.635,23.635l-8.674,31.25c10.68,7.653 22.087,14.239 34.055,19.662l22.726,-23.138c10.453,3.934 21.267,6.832 32.286,8.651l8.113,31.401c13.076,1.288 26.248,1.288 39.324,0l8.113,-31.401c11.019,-1.819 21.833,-4.717 32.286,-8.651l22.726,23.138c11.968,-5.423 23.375,-12.009 34.055,-19.662l-8.674,-31.25c8.633,-7.086 16.55,-15.002 23.635,-23.635l31.25,8.674c7.654,-10.68 14.239,-22.087 19.662,-34.055l-23.137,-22.727c3.934,-10.452 6.831,-21.266 8.651,-32.286l31.4,-8.112c1.288,-13.077 1.288,-26.248 0,-39.324l-31.4,-8.113c-1.82,-11.019 -4.717,-21.833 -8.651,-32.286l23.137,-22.726c-5.423,-11.969 -12.008,-23.375 -19.662,-34.056l-31.25,8.675c-7.085,-8.634 -15.002,-16.55 -23.635,-23.635l8.674,-31.25c-10.68,-7.654 -22.087,-14.24 -34.055,-19.662l-22.726,23.137c-10.453,-3.934 -21.267,-6.832 -32.286,-8.651l-8.113,-31.401Zm-19.662,100.047c54.961,0 99.583,44.622 99.583,99.583c0,54.961 -44.622,99.582 -99.583,99.582c-54.961,0 -99.583,-44.621 -99.583,-99.582c0,-54.961 44.622,-99.583 99.583,-99.583Z"/><g><circle cx="400" cy="625.974" r="63.101"/><path d="M497.641,800c0,-58.328 -43.715,-105.611 -97.641,-105.611c-53.926,0 -97.641,47.283 -97.641,105.611l195.282,0Z"/></g><g><circle cx="174.014" cy="625.974" r="63.101"/><path d="M271.655,800c0,-58.328 -43.716,-105.611 -97.641,-105.611c-53.926,0 -97.641,47.283 -97.641,105.611l195.282,0Z"/></g><g><circle cx="625.986" cy="625.974" r="63.101"/><path d="M723.627,800c0,-58.328 -43.715,-105.611 -97.641,-105.611c-53.925,0 -97.641,47.283 -97.641,105.611l195.282,0Z"/></g><path d="M400,413.422l0,136.83" style="fill:none;stroke:#000;stroke-width:8px;"/><path d="M400,481.837l-225.986,0l0,68.415" style="fill:none;stroke:#000;stroke-width:8px;"/><path d="M400,481.837l225.986,0l0,68.415" style="fill:none;stroke:#000;stroke-width:8px;"/></svg>